<?xml version="1.0" encoding="UTF-8"?>
<svg width="44" height="42" viewBox="0 0 44 42" fill="none" xmlns="http://www.w3.org/2000/svg">
<g clip-path="url(#clip0)">

<path d="M38.7761 32.8615C39.1991 32.5596 39.3625 32.1925 39.3793 31.5934L39.3841 9.94891C39.2375 7.54075 35.9808 7.77021 35.9303 9.94891V29.6394C35.9303 30.3157 35.7765 30.5935 35.2814 30.8881L33.3922 31.9751C32.9812 32.2142 32.4885 31.9364 32.4885 31.4582V7.02385C32.4741 6.38135 32.301 5.99971 31.8347 5.68812L24.2589 1.31381C22.1726 0.243778 20.6248 3.12295 22.5307 4.321L28.3713 7.67601C28.8664 8.00692 29.025 8.12045 29.025 8.79918L29.0322 33.649C29.025 34.2987 28.9337 34.5378 28.3833 34.8881L26.4749 35.9943C26.0639 36.2335 25.5784 35.9557 25.5784 35.4774L25.5736 10.961C25.5664 10.2943 25.3933 9.90544 24.9174 9.5866L18.5601 5.91517C17.9376 5.56252 17.8439 5.31856 17.8054 4.72196L17.7982 2.2848C17.8343 0.908017 16.2768 0.0312218 15.1039 0.811401L1.19239 8.89579C0.697269 9.22671 0.531427 9.63491 0.536234 10.3523L0.538637 31.8374C0.685251 34.2456 3.94201 34.0161 3.99248 31.8374V12.1469C3.99248 11.403 4.15111 11.2363 4.64623 10.9054L6.55462 9.78467C6.96562 9.54554 7.4343 9.83781 7.4343 10.3136V34.7721C7.45113 35.4074 7.62418 35.7842 8.08806 36.0934L15.6615 40.4701C17.7478 41.5401 19.2956 38.6609 17.3896 37.4629L11.5443 34.1031C11.0492 33.7721 10.8905 33.6586 10.8905 32.9799V8.13735C10.8857 7.41997 11.0516 7.21708 11.5467 6.88375L13.4551 5.77749C13.8661 5.53837 14.3468 5.83546 14.3468 6.3113L14.3492 30.8688C14.3636 31.5113 14.5367 31.8905 15.003 32.2021L21.4756 35.9533C21.9707 36.2842 22.1294 36.3977 22.1294 37.0764V39.6464C22.187 40.9169 23.6988 41.7309 24.8213 40.9701L38.7256 32.8905C38.7424 32.8857 38.7592 32.8736 38.7761 32.8615ZM21.2304 31.8277L18.4616 30.2046C17.8559 29.835 17.8006 29.4848 17.8006 28.9534V10.4996C17.8006 10.0214 18.2885 9.7267 18.702 9.96582L21.4708 11.589C21.9299 11.8909 22.1173 12.1059 22.127 12.7532L22.1318 31.2746C22.1294 31.7504 21.6414 32.0669 21.2304 31.8277Z" fill="url(#paint0_linear)"/>
</g>
<defs>
<linearGradient id="paint0_linear" x1="19.9613" y1="41.2687" x2="19.9613" y2="0.517639" gradientUnits="userSpaceOnUse">
<stop offset="0.069" stop-color="#FF276A"/>
<stop offset="0.1595" stop-color="#E14989"/>
<stop offset="0.282" stop-color="#BF6FAD"/>
<stop offset="0.4094" stop-color="#A28FCB"/>
<stop offset="0.5409" stop-color="#8CA8E2"/>
<stop offset="0.6782" stop-color="#7CB9F2"/>
<stop offset="0.8252" stop-color="#73C4FC"/>
<stop offset="0.9988" stop-color="#70C7FF"/>
</linearGradient>
<clipPath id="clip0">
<rect width="274" height="41.5451" fill="white"/>
</clipPath>
</defs>
</svg>
